<svg width="69" height="17" viewBox="0 0 69 17" fill="none" xmlns="http://www.w3.org/2000/svg">
<g clip-path="url(#clip0_2391_8)">
<mask id="mask0_2391_8" style="mask-type:luminance" maskUnits="userSpaceOnUse" x="0" y="0" width="69" height="17">
<path d="M0 0.230713H69V16.2307H0V0.230713Z" fill="white"/>
</mask>
<g mask="url(#mask0_2391_8)">
<path fill-rule="evenodd" clip-rule="evenodd" d="M57.1229 4.98569H59.0825V3.00098H57.1229V4.98569ZM46.7074 8.2909C47.0818 7.28527 48.0407 6.56925 49.165 6.56925C50.2891 6.56925 51.248 7.28527 51.6226 8.2909H46.7074ZM49.165 4.72395C46.7087 4.72395 44.7168 6.74104 44.7168 9.22932C44.7168 11.7176 46.7087 13.7344 49.165 13.7344C50.8506 13.7344 52.3169 12.7851 53.0717 11.386L51.428 10.5784C50.9713 11.3626 50.129 11.8891 49.165 11.8891C47.9469 11.8891 46.923 11.0492 46.6259 9.91015H51.7038C51.7035 9.91098 51.7034 9.91214 51.7032 9.91313H53.563C53.5966 9.69006 53.6139 9.46168 53.6139 9.22932C53.6139 6.74104 51.6221 4.72395 49.165 4.72395ZM54.1305 13.4942H56.09V11.5095H54.1305V13.4942ZM57.1229 13.4942H59.0825V5.85822H57.1229V13.4942ZM64.5519 11.8891C63.1015 11.8891 61.9257 10.6982 61.9257 9.22932C61.9257 7.76012 63.1015 6.56925 64.5519 6.56925C66.0023 6.56925 67.1781 7.76012 67.1781 9.22932C67.1781 10.6982 66.0023 11.8891 64.5519 11.8891ZM64.5511 4.72395C62.0948 4.72395 60.1029 6.74104 60.1029 9.22932C60.1029 11.7176 62.0948 13.7344 64.5511 13.7344C67.0082 13.7344 69 11.7176 69 9.22932C69 6.74104 67.0082 4.72395 64.5511 4.72395ZM23.581 7.56858V9.62069H26.3209C26.1779 10.2071 25.895 10.7325 25.4894 11.1523C24.8777 11.7855 24.0295 12.1344 23.1008 12.1344C21.1739 12.1344 19.6059 10.5465 19.6059 8.59464C19.6059 6.64278 21.1739 5.05474 23.1008 5.05474C24.1331 5.05474 25.0819 5.50221 25.7397 6.27399L27.3084 4.97574C26.2683 3.74122 24.7251 3.00247 23.1008 3.00247C20.0566 3.00247 17.5798 5.51117 17.5798 8.59464C17.5798 11.6781 20.0566 14.1866 23.1008 14.1866C24.579 14.1866 25.9416 13.6472 26.9377 12.6162C27.7736 11.7508 28.3277 10.5437 28.4342 9.33438C28.4862 8.74451 28.4909 8.15862 28.4603 7.56858H23.581ZM33.5621 11.8896C32.1117 11.8896 30.9357 10.6984 30.9357 9.22932C30.9357 7.75995 32.1117 6.56909 33.5621 6.56909C35.0127 6.56909 36.1886 7.75995 36.1886 9.22932C36.1886 10.6984 35.0127 11.8896 33.5621 11.8896ZM36.189 5.60196C35.4527 5.05524 34.5448 4.73159 33.5621 4.73159C31.1058 4.73159 29.1146 6.74851 29.1146 9.23629C29.1146 11.7244 31.1058 13.741 33.5621 13.741C34.5448 13.741 35.4527 13.4175 36.189 12.8708V13.4942H38.0097V4.97856H36.189V5.60196ZM41.9184 3.00114H40.0975V4.98569H39.0061V6.72626H40.0975V11.2813C40.0975 11.7516 40.1558 12.1473 40.2715 12.4578C40.3855 12.7651 40.5599 13.0056 40.7672 13.1934C40.9773 13.3842 41.2237 13.5327 41.5159 13.617C41.8129 13.7017 42.1404 13.7344 42.4867 13.7344C42.8451 13.7344 43.1646 13.6967 43.4373 13.6222C43.6905 13.5533 43.9332 13.4559 44.159 13.332V11.9296C43.7998 12.0869 43.464 12.1438 43.0809 12.1619C42.6765 12.1812 42.4372 12.0642 42.2381 11.872C42.0295 11.6706 41.9184 11.4082 41.9184 10.9681V6.72626H44.159V4.98569H41.9184V3.00114Z" fill="white"/>
</g>
<mask id="mask1_2391_8" style="mask-type:luminance" maskUnits="userSpaceOnUse" x="0" y="0" width="69" height="17">
<path d="M0 0.230713H69V16.2307H0V0.230713Z" fill="white"/>
</mask>
<g mask="url(#mask1_2391_8)">
<path fill-rule="evenodd" clip-rule="evenodd" d="M7.89878 12.6306C5.49954 12.6306 3.55454 10.6608 3.55454 8.23059C3.55454 5.80056 5.49954 3.83045 7.89878 3.83045V0.230469C3.53635 0.230469 0 3.81219 0 8.23059C0 12.6488 3.53635 16.2305 7.89878 16.2305C12.2611 16.2305 15.7976 12.6488 15.7976 8.23059H12.243C12.243 10.6608 10.298 12.6306 7.89878 12.6306Z" fill="#2354E6"/>
</g>
<mask id="mask2_2391_8" style="mask-type:luminance" maskUnits="userSpaceOnUse" x="0" y="0" width="69" height="17">
<path d="M0 0.230713H69V16.2307H0V0.230713Z" fill="white"/>
</mask>
<g mask="url(#mask2_2391_8)">
<path fill-rule="evenodd" clip-rule="evenodd" d="M7.8988 8.23078H12.243V3.83081H7.8988V8.23078Z" fill="#17E6A1"/>
</g>
</g>
<defs>
<clipPath id="clip0_2391_8">
<rect width="69" height="16" fill="white" transform="translate(0 0.230713)"/>
</clipPath>
</defs>
</svg>
